<?xml version="1.0" standalone="no"?>
<!DOCTYPE svg PUBLIC "-//W3C//DTD SVG 20010904//EN"
 "http://www.w3.org/TR/2001/REC-SVG-20010904/DTD/svg10.dtd">
<svg version="1.0" xmlns="http://www.w3.org/2000/svg"
 width="512.000000pt" height="512.000000pt" viewBox="0 0 512.000000 512.000000"
 preserveAspectRatio="xMidYMid meet">
<metadata>
Created by potrace 1.11, written by Peter Selinger 2001-2013
</metadata>
<g transform="translate(0.000000,512.000000) scale(0.100000,-0.100000)"
fill="#000000" stroke="none">
<path d="M2295 4119 c-3 -3 -42 -7 -87 -7 -131 -2 -269 -10 -468 -28 -36 -3
-83 -7 -105 -9 -62 -5 -167 -15 -195 -20 -14 -2 -47 -7 -75 -10 -47 -5 -254
-37 -320 -49 -30 -6 -52 -10 -130 -22 -46 -7 -48 -8 -95 -18 -60 -14 -93 -36
-160 -106 -80 -84 -152 -167 -164 -188 -5 -9 -19 -26 -32 -39 -12 -12 -43 -50
-70 -85 -26 -35 -55 -71 -63 -80 -20 -22 -22 -24 -113 -143 -76 -100 -98 -143
-92 -180 13 -89 31 -121 114 -206 19 -20 78 -81 130 -136 52 -55 118 -124 147
-154 28 -30 86 -88 128 -129 42 -41 84 -87 93 -103 9 -15 24 -30 34 -33 9 -3
20 -14 23 -25 4 -10 13 -19 21 -19 8 0 14 -3 14 -8 0 -12 70 -88 70 -77 0 6 7
-1 15 -15 8 -14 14 -21 15 -17 0 5 12 -6 27 -25 15 -18 37 -40 47 -47 11 -8
73 -67 137 -130 145 -144 332 -320 514 -486 36 -33 81 -73 99 -90 61 -57 111
-101 161 -140 28 -22 60 -50 72 -62 12 -13 27 -23 33 -23 5 0 10 -5 10 -10 0
-6 7 -13 17 -17 9 -4 30 -21 47 -38 17 -17 44 -39 60 -50 17 -10 44 -30 60
-46 27 -24 101 -77 246 -174 57 -39 110 -39 180 -1 34 17 73 42 88 54 23 19
76 57 205 150 18 13 41 31 52 40 11 10 65 55 120 101 157 131 217 183 257 223
20 21 39 38 41 38 3 0 21 15 40 32 18 18 71 67 116 108 235 215 941 901 941
914 0 2 48 53 106 112 85 88 284 296 342 359 6 7 12 18 12 24 0 6 4 11 9 11
11 0 25 66 23 105 -3 34 -34 102 -60 131 -10 10 -29 35 -42 54 -13 19 -29 40
-35 46 -5 6 -21 25 -35 43 -14 18 -34 43 -45 55 -11 11 -39 47 -63 79 -23 31
-47 57 -52 57 -6 0 -10 5 -10 11 0 6 -6 17 -12 24 -7 8 -40 46 -73 86 -119
141 -190 208 -231 215 -16 3 -42 9 -59 13 -16 5 -66 14 -110 21 -44 6 -91 14
-105 17 -38 8 -249 42 -295 47 -22 3 -58 7 -80 10 -35 4 -118 12 -220 21 -148
13 -197 17 -240 20 -160 9 -270 16 -350 21 -134 9 -576 11 -580 3z"/>
</g>
</svg>
